<?xml version="1.0" encoding="UTF-8"?>
<svg xmlns="http://www.w3.org/2000/svg" xmlns:xlink="http://www.w3.org/1999/xlink" viewBox="0 0 360 200">
  <defs>
    <style>
      .cls-1 {
        clip-path: url(#clippath-20);
      }

      .cls-2 {
        clip-path: url(#clippath-11);
      }

      .cls-3 {
        clip-path: url(#clippath-16);
      }

      .cls-4 {
        clip-path: url(#clippath-2);
      }

      .cls-5 {
        clip-path: url(#clippath-13);
      }

      .cls-6 {
        clip-path: url(#clippath-15);
      }

      .cls-7 {
        clip-path: url(#clippath-6);
      }

      .cls-8 {
        fill: #f5f5f5;
      }

      .cls-8, .cls-9, .cls-10, .cls-11 {
        stroke-width: 0px;
      }

      .cls-9 {
        fill: none;
      }

      .cls-12 {
        clip-path: url(#clippath-7);
      }

      .cls-13 {
        clip-path: url(#clippath-21);
      }

      .cls-14 {
        clip-path: url(#clippath-1);
      }

      .cls-15 {
        clip-path: url(#clippath-4);
      }

      .cls-16 {
        clip-path: url(#clippath-12);
      }

      .cls-10 {
        fill: #fff;
      }

      .cls-17 {
        clip-path: url(#clippath-24);
      }

      .cls-18 {
        clip-path: url(#clippath-22);
      }

      .cls-19 {
        clip-path: url(#clippath-9);
      }

      .cls-20 {
        clip-path: url(#clippath);
      }

      .cls-11 {
        fill: #4f2683;
      }

      .cls-21 {
        clip-path: url(#clippath-19);
      }

      .cls-22 {
        clip-path: url(#clippath-3);
      }

      .cls-23 {
        clip-path: url(#clippath-8);
      }

      .cls-24 {
        clip-path: url(#clippath-18);
      }

      .cls-25 {
        clip-path: url(#clippath-14);
      }

      .cls-26 {
        clip-path: url(#clippath-17);
      }

      .cls-27 {
        clip-path: url(#clippath-5);
      }

      .cls-28 {
        clip-path: url(#clippath-10);
      }

      .cls-29 {
        clip-path: url(#clippath-23);
      }
    </style>
    <clipPath id="clippath">
      <rect class="cls-9" x="35.43" y="65.56" width="289.14" height="68.89"/>
    </clipPath>
    <clipPath id="clippath-1">
      <rect class="cls-9" x="35.43" y="65.56" width="289.14" height="68.89"/>
    </clipPath>
    <clipPath id="clippath-2">
      <rect class="cls-9" x="35.43" y="65.56" width="289.14" height="68.89"/>
    </clipPath>
    <clipPath id="clippath-3">
      <rect class="cls-9" x="35.43" y="65.56" width="289.14" height="68.89"/>
    </clipPath>
    <clipPath id="clippath-4">
      <rect class="cls-9" x="35.43" y="65.56" width="289.14" height="68.89"/>
    </clipPath>
    <clipPath id="clippath-5">
      <rect class="cls-9" x="35.43" y="65.56" width="289.14" height="68.89"/>
    </clipPath>
    <clipPath id="clippath-6">
      <rect class="cls-9" x="35.43" y="65.56" width="289.14" height="68.89"/>
    </clipPath>
    <clipPath id="clippath-7">
      <rect class="cls-9" x="35.43" y="65.56" width="289.14" height="68.89"/>
    </clipPath>
    <clipPath id="clippath-8">
      <rect class="cls-9" x="35.43" y="65.56" width="289.14" height="68.89"/>
    </clipPath>
    <clipPath id="clippath-9">
      <rect class="cls-9" x="35.43" y="65.56" width="289.14" height="68.89"/>
    </clipPath>
    <clipPath id="clippath-10">
      <rect class="cls-9" x="35.43" y="65.56" width="289.14" height="68.89"/>
    </clipPath>
    <clipPath id="clippath-11">
      <rect class="cls-9" x="35.43" y="65.56" width="289.14" height="68.89"/>
    </clipPath>
    <clipPath id="clippath-12">
      <rect class="cls-9" x="35.43" y="65.56" width="289.14" height="68.89"/>
    </clipPath>
    <clipPath id="clippath-13">
      <rect class="cls-9" x="35.43" y="65.56" width="289.14" height="68.89"/>
    </clipPath>
    <clipPath id="clippath-14">
      <rect class="cls-9" x="35.43" y="65.56" width="289.14" height="68.89"/>
    </clipPath>
    <clipPath id="clippath-15">
      <rect class="cls-9" x="35.43" y="65.56" width="289.14" height="68.89"/>
    </clipPath>
    <clipPath id="clippath-16">
      <rect class="cls-9" x="35.43" y="65.56" width="289.14" height="68.89"/>
    </clipPath>
    <clipPath id="clippath-17">
      <rect class="cls-9" x="35.43" y="65.56" width="289.14" height="68.89"/>
    </clipPath>
    <clipPath id="clippath-18">
      <rect class="cls-9" x="35.43" y="65.56" width="289.14" height="68.89"/>
    </clipPath>
    <clipPath id="clippath-19">
      <rect class="cls-9" x="35.43" y="65.56" width="289.14" height="68.89"/>
    </clipPath>
    <clipPath id="clippath-20">
      <rect class="cls-9" x="35.43" y="65.56" width="289.14" height="68.89"/>
    </clipPath>
    <clipPath id="clippath-21">
      <rect class="cls-9" x="35.43" y="65.56" width="289.14" height="68.89"/>
    </clipPath>
    <clipPath id="clippath-22">
      <rect class="cls-9" x="35.43" y="65.56" width="289.14" height="68.89"/>
    </clipPath>
    <clipPath id="clippath-23">
      <rect class="cls-9" x="35.43" y="65.56" width="289.14" height="68.89"/>
    </clipPath>
    <clipPath id="clippath-24">
      <rect class="cls-9" x="35.43" y="65.56" width="289.14" height="68.89"/>
    </clipPath>
  </defs>
  <g id="bg">
    <rect class="cls-8" x="-4.07" y="-40.93" width="369.06" height="284.91"/>
  </g>
  <g id="art">
    <g>
      <polygon class="cls-11" points="97.45 122.44 97.45 132.31 103.61 132.31 103.61 131.44 98.39 131.44 98.39 127.53 102.07 127.53 102.07 126.66 98.39 126.66 98.39 123.34 103.33 123.34 103.33 122.44 97.45 122.44"/>
      <g>
        <g class="cls-20">
          <path class="cls-11" d="m125.37,126.86c-2.09-.67-2.73-1.03-2.73-2.13,0-.91.79-1.62,2.13-1.62,1.22,0,2.09.51,2.61,1.78l.79-.36c-.47-1.3-1.54-2.25-3.4-2.25s-3.04,1.11-3.04,2.53c0,1.62,1.07,2.21,3.2,2.84,2.09.67,2.57,1.18,2.57,2.21,0,1.11-.95,1.78-2.45,1.78-1.38,0-2.37-.71-2.8-2.09l-.83.32c.47,1.58,1.78,2.61,3.63,2.61,1.97,0,3.44-1.07,3.44-2.69-.08-1.58-1.07-2.25-3.12-2.92"/>
        </g>
        <g class="cls-14">
          <path class="cls-11" d="m116.09,125.12c0-1.74-1.22-2.65-3.44-2.65h-3.32v9.84h.95v-4.42h2.45l2.41,4.42h1.07l-2.49-4.5c1.46-.32,2.37-1.11,2.37-2.69m-3.48,1.94h-2.29v-3.75h2.29c1.66,0,2.57.47,2.57,1.82-.04,1.46-.95,1.94-2.57,1.94"/>
        </g>
        <g class="cls-4">
          <path class="cls-11" d="m108.31,109.52c-7.66,0-8.81-5.85-8.81-14.77v-.47h19.71c0-7.94-4.42-13.43-12.64-13.43-9.01,0-13.82,6.91-13.82,15.25s4.54,15.29,13.79,15.29c5.73,0,10.35-2.17,12.76-8.45l-1.38-.43c-1.7,3.87-4.46,7.03-9.6,7.03m-8.73-18.45c.32-4.42,1.94-8.73,6.6-8.73,4.98,0,6.04,3.87,6.16,7.98v2.09h-12.84c0-.43.04-.95.08-1.34"/>
        </g>
        <g class="cls-22">
          <path class="cls-11" d="m254.93,109.16v-19.95c0-5.92-2.92-8.49-8.73-8.49-4.86,0-8.45,2.37-10.27,6.4h-.12v-6.56c-.79.67-1.9,1.42-4.5,1.42h-6.28v1.5h4.74v25.67h-5.13v1.5h15.88v-1.5h-4.7v-15.44c0-5.53,2.84-10.86,8.22-10.86,3,0,4.86,1.7,4.86,6.16v20.14h-4.7v1.5h15.44v-1.5h-4.7Z"/>
        </g>
        <g class="cls-15">
          <path class="cls-11" d="m97.96,69.35v-1.46h-12.09v1.46h5.33l-1.38,4.86-8.37,25.6h-.12l-9.4-25.71-1.62-4.74h6v-1.46h-18.56v1.46h5.17l3.04,8.18-7.7,22.28h-.12l-9.28-25.6-1.62-4.86h5.33v-1.46h-17.14v1.46h4.15l2.17,5.77,13.27,36.18h1.22s8.14-23.3,10.74-30.85l11.45,30.85h1.26l12.01-36.62,1.9-5.33h4.35Z"/>
        </g>
        <g class="cls-27">
          <path class="cls-11" d="m135.25,109.72c-5.81,0-9.24-3.79-10.51-9.32h-1.46l1.94,10.66c.63-.75,1.46-.99,2.29-.99,1.66,0,3.79,1.26,7.58,1.26,6.04,0,10.63-3.36,10.63-9.12,0-11.49-16.47-8.45-16.47-15.88,0-2.37,1.7-4.11,4.7-4.11,4.82,0,7.5,3.4,8.65,7.43h1.42l-1.66-9.08c-.55.63-1.3.95-2.17.95-2.01,0-3.24-.83-6.28-.83-5.25,0-9.28,2.84-9.28,8.02,0,10.59,16.23,8.33,16.23,15.92,0,3.48-2.49,5.1-5.61,5.1"/>
        </g>
        <g class="cls-7">
          <path class="cls-11" d="m54.71,128.83c0,1.62-.83,2.76-2.65,2.76s-2.65-1.18-2.65-2.8v-6.36h-.95v6.52c0,1.97,1.15,3.52,3.59,3.52s3.59-1.58,3.59-3.52v-6.48h-.95v6.36Z"/>
        </g>
        <g class="cls-12">
          <path class="cls-11" d="m224.79,122.4l-3.67,9.87h.91l1.11-3.04h4.34l1.11,3.04h.99l-3.67-9.87h-1.11Zm-1.34,6.04l1.86-5.02h.04l1.86,5.02h-3.75Z"/>
        </g>
        <g class="cls-23">
          <polygon class="cls-11" points="87.85 131.05 87.85 131.05 84.88 122.44 83.94 122.44 87.37 132.35 88.28 132.35 91.72 122.44 90.81 122.44 87.85 131.05"/>
        </g>
        <g class="cls-19">
          <polygon class="cls-11" points="68.85 130.57 68.81 130.57 63.4 122.44 62.37 122.44 62.37 132.31 63.28 132.31 63.28 123.94 63.32 123.94 68.89 132.31 69.76 132.31 69.76 122.44 68.85 122.44 68.85 130.57"/>
        </g>
        <g class="cls-28">
          <rect class="cls-11" x="77.06" y="122.44" width=".95" height="9.84"/>
        </g>
        <g class="cls-2">
          <path class="cls-11" d="m196.08,102.88l-1.38-.43c-1.66,3.95-4.46,7.07-9.6,7.07-7.66,0-8.81-5.85-8.81-14.77v-.47h19.71c0-7.94-4.42-13.43-12.64-13.43-9.01,0-13.82,6.91-13.82,15.25s4.54,15.29,13.79,15.29c5.73-.04,10.35-2.17,12.76-8.49m-19.71-11.81c.32-4.42,1.94-8.73,6.6-8.73,4.98,0,6.04,3.87,6.16,7.98v2.09h-12.84c.04-.43.04-.95.08-1.34"/>
        </g>
        <g class="cls-16">
          <polygon class="cls-11" points="213.97 130.57 213.93 130.57 208.48 122.44 207.49 122.44 207.49 132.31 208.36 132.31 208.36 123.94 208.4 123.94 214.01 132.31 214.84 132.31 214.84 122.44 213.97 122.44 213.97 130.57"/>
        </g>
        <g class="cls-5">
          <path class="cls-11" d="m183.44,131.64c-1.9,0-3.16-1.58-3.16-4.31,0-2.53,1.22-4.19,3.12-4.19,1.5,0,2.25.83,2.69,2.37l.91-.24c-.47-1.82-1.58-3-3.55-3-2.45,0-4.11,2.09-4.11,5.06,0,3.12,1.62,5.13,4.11,5.13,1.97,0,3.24-1.22,3.71-3.16l-.91-.2c-.39,1.66-1.34,2.53-2.8,2.53"/>
        </g>
        <g class="cls-25">
          <rect class="cls-11" x="134.42" y="122.44" width=".95" height="9.84"/>
        </g>
        <g class="cls-6">
          <path class="cls-11" d="m238.46,122.44h-2.49v9.84h2.49c3.16,0,4.9-1.7,4.9-4.94s-1.7-4.9-4.9-4.9m.16,9.05h-1.7v-8.18h1.66c2.45,0,3.87,1.26,3.87,4.07,0,2.84-1.38,4.11-3.83,4.11"/>
        </g>
        <g class="cls-3">
          <path class="cls-11" d="m223.05,84.83c0-2.37-1.74-4.15-4.98-4.15-4.82,0-7.23,4.34-8.49,7.78h-.08v-8.02c-.95.79-1.94,1.54-4.5,1.54h-6.68v1.5h5.1v25.67h-5.1v1.5h16.12v-1.5h-4.94v-12.64c0-6.71,3.32-14.06,7.54-14.06.32,0,.51.04.71.12-.71.59-1.18,1.5-1.18,2.49,0,1.86,1.42,3.2,3.2,3.2,1.94,0,3.28-1.62,3.28-3.44"/>
        </g>
        <g class="cls-26">
          <path class="cls-11" d="m196.31,122.4l-3.67,9.87h.91l1.11-3.04h4.34l1.11,3.04h.99l-3.67-9.87h-1.11Zm-1.34,6.04l1.86-5.02h.04l1.86,5.02h-3.75Z"/>
        </g>
        <g class="cls-24">
          <polygon class="cls-11" points="155.87 127.14 153.1 122.44 152.07 122.44 155.39 128.01 155.39 132.31 156.34 132.31 156.34 128.01 159.66 122.44 158.63 122.44 155.87 127.14"/>
        </g>
        <g class="cls-21">
          <polygon class="cls-11" points="140.5 123.34 143.7 123.34 143.7 132.31 144.61 132.31 144.61 123.34 147.81 123.34 147.81 122.44 140.5 122.44 140.5 123.34"/>
        </g>
        <g class="cls-1">
          <path class="cls-11" d="m162.54,108.97c-2.25,0-3.2-1.42-3.2-4.94v-20.54h7.31v-1.5h-7.31v-9.8h-1.26c-.83,6.32-3.99,9.56-9.76,10.11v1.18h4.82v20.3c0,3.79.75,7.43,6.91,7.43,3.91,0,6.24-1.78,7.5-4.15l.47-.95-1.3-.59c-.75,1.74-2.01,3.44-4.19,3.44"/>
        </g>
        <g class="cls-13">
          <path class="cls-11" d="m252.21,122.4l-3.67,9.87h.91l1.11-3.04h4.34l1.11,3.04h.99l-3.67-9.87h-1.11Zm-1.3,6.04l1.86-5.02h.04l1.86,5.02h-3.75Z"/>
        </g>
        <g class="cls-18">
          <path class="cls-11" d="m169.22,126.43c-.59,0-.99.43-.99.99,0,.59.43.99.99.99.59,0,.99-.43.99-.99,0-.59-.43-.99-.99-.99"/>
        </g>
        <g class="cls-29">
          <path class="cls-10" d="m324.57,94.08v-24.77c-6.4-2.25-16.47-3.71-27.81-3.71s-21.01,1.46-27.41,3.71v25.12c0,3.71-.16,10.27,3.2,18.09,4.19,9.76,12.28,17.06,23.82,21.65l.59.24.59-.24c11.57-4.58,19.67-11.93,23.82-21.69,3.36-7.82,3.2-14.85,3.2-18.41"/>
        </g>
        <g class="cls-17">
          <path class="cls-11" d="m324.57,94.08v-24.77c-6.4-2.25-16.47-3.71-27.81-3.71s-21.01,1.46-27.45,3.71v25.12c0,3.71-.16,10.27,3.2,18.09,4.19,9.76,12.28,17.06,23.82,21.69l.59.24.59-.24c11.57-4.58,19.67-11.93,23.82-21.69,3.4-7.86,3.24-14.89,3.24-18.45m-21.57,27.06c-.12.04-.28.08-.39.16-.08.04-.12.08-.12.12s.04.12.08.16c-.08.28-.71.24-.91.32-.16.08-.39.24-.51.39-.12.12-.08.08-.28.12-.32.08-.28.39-.16.63s.28.43.51.59c.08.04.43.2.63.2-.2.2-.43.16-.67.24-.12.04-.24.12-.39.16-.2.04-.28.04-.47,0-.24-.04-.47-.04-.67,0-.16,0-.28,0-.43-.08-.08-.04-.2-.12-.24-.12-.2-.04-.04.24,0,.36-.28.24-.87-.08-1.11-.24-.2-.12-.32-.43-.55-.51v.75c.04.79.04,1.54.08,2.29,0,.43.04.91.04,1.34h-.83l.12-4.46c-.28,0-.39.28-.59.36-.12.04-.28.04-.39.12s-.2.2-.36.28c-.12.04-.28.08-.43.08-.2,0-.39-.04-.47-.16.08-.16,0-.32-.12-.39s-.32.04-.43.08c-.59.16-1.26-.2-1.82-.43,0,0,1.3-.24,1.3-.99,0-.2-.08-.39-.28-.51-.16-.12-.43-.28-.63-.32-.32-.04-.55.04-.75-.04.04-.12-.16-.24-.28-.36-.12-.08-.28-.12-.43-.2-.28-.12-.63-.39-.55-.71.2.12.39.12.59.04.16-.08.2-.2.2-.39,0-.24-.28-.39-.36-.59-.08-.16-.16-.28-.28-.39-.12-.08-.32-.12-.32-.32.24.08.32-.12.16-.28-.16-.2-.39-.28-.51-.51-.12-.2-.2-.43-.2-.67,0-.08,0-.28.12-.28.08-.04.12.12.16.16.16.24.39.32.59.43.28.16.39.24.71.28.63.12,1.03.04,1.38-.32.08-.04.24-.16.28-.16.12.16.47.51.79.63.24.08.51.39.63.51.43.39.71.16.71-.2,0-.32-.12-.71-.2-.99-.12-.47-.2-.71-.28-1.18-.04-.32-.2-.55-.32-.75s-.28-.75.12-.55c.16.08.39.24.59.2.47-.08.51-.55.59-.95.04-.2.04-.36.12-.55.04-.12.08-.16.16-.16.04.04.08.16.2.16.16,0,.32-.32.36-.47.04-.16.08-.32.12-.47.08-.24.12-.51.24-.79.04.16.12.47.16.59.12.28.2.55.36.79.16.2.32.24.55.16.12.28.12,1.11.32,1.5.12.24.32.32.51.32s.32-.04.43-.12c.16-.08.32-.2.43-.2.04,0,.08.04.08.08,0,.2-.28.67-.32.75-.08.24-.24.51-.28.71-.04.2-.12.43-.16.63-.04.24-.08.51-.12.87,0,.2,0,.59.16.71.24.16.55-.16.71-.32.24-.2.43-.36.59-.59.12-.16.39-.63.63-.59,0,.2.28.43.63.51.24.04.43,0,.59-.12q.2-.12.39-.04c.43.16,1.18-.39,1.42-.63.08.08,0,.28-.12.43-.2.32-.43.43-.43.67,0,.2-.28.59-.24.83-.08.12-.32.28-.43.36-.32.28-.51.59-.39,1.03.12.36.39.55.71.55.28,0,.47-.2.59-.16.04.04-.08.2-.16.28-.04.24-.32.32-.47.36m16.47-35.04h-45.03l-2.88-3.04,5.73,1.9c-.47-1.42-1.78-1.94-2.65-3.16-.51-.71-.67-1.46-.63-2.17.16.28.43.63.87.95.43.28.99.51,1.74.67,1.34.28,2.05.71,2.65,1.26l-2.92-5.25,5.06,3.28c-.2-1.5-1.26-2.29-1.78-3.67-.32-.83-.32-1.58-.04-2.29.08.28.28.71.59,1.11s.83.75,1.5,1.07c1.3.63,1.86,1.26,2.29,1.97l-1.54-5.89,4.07,4.38c.16-1.46-.63-2.49-.79-3.95-.08-.87.08-1.62.51-2.25,0,.32.08.75.32,1.22.24.43.59.91,1.18,1.42,1.11.99,1.5,1.74,1.78,2.57l-.04-6.2,2.84,5.25c.55-1.34-.04-2.57.2-3.99.12-.87.51-1.54,1.07-2.05-.08.32-.12.75,0,1.26.12.47.36,1.03.79,1.66.87,1.26,1.03,2.09,1.07,2.96h0l1.5-6.08,1.46,5.81c.87-1.18.63-2.57,1.22-3.91.36-.83.87-1.3,1.54-1.66-.16.28-.32.71-.32,1.22-.04.51.08,1.11.36,1.82.51,1.38.47,2.21.32,3.08l2.92-5.45-.04,5.96c1.15-.91,1.22-2.33,2.09-3.48.55-.71,1.18-1.03,1.9-1.22-.2.24-.47.59-.63,1.11-.16.47-.2,1.07-.12,1.86.16,1.5-.08,2.33-.47,3.12h0l4.23-4.58-1.54,5.77c1.26-.59,1.74-1.82,2.88-2.73.71-.55,1.38-.83,2.13-.79-.24.16-.59.47-.87.91-.28.43-.43.99-.55,1.78-.24,1.5-.67,2.21-1.22,2.88h.04l5.25-3.4-2.88,5.17c1.42-.2,2.09-1.34,3.44-1.9.79-.36,1.58-.43,2.29-.24-.28.12-.71.32-1.07.67s-.67.87-.99,1.58c-.59,1.38-1.18,1.97-1.9,2.49l.04.04,5.92-1.97-2.88,3.12Zm-23.34,12.76c-.08-.12-.39-.83-2.13-.83h-5.06v-8.14h.36v7.74h4.62c.36,0,.67.04.91.08.95.16,1.3.51,1.5.79h1.18c.16-.28.55-.63,1.46-.79.28-.04.55-.08.91-.08h4.62v-7.74h.36v8.14h-5.06c-1.74,0-2.01.71-2.05.83h-1.62Zm.59-1.38v.39c-.71-1.3-3.91-1.11-6.64-.83v-7.54c1.46,0,2.92-.2,4.03-.2,1.42,0,2.41.24,2.57,1.07v6.79c-.87-1.03-3.48-.95-6.2-.67v.24c2.76-.36,5.61-.43,6.24.75m-5.69-3h1.9v-.16h-.16c-.47,0-.47-.04-.47-.36v-1.3c0-.36.04-.39.36-.39h.28v-.16h-1.9v.16h.28c.32,0,.36.04.36.39v1.3c0,.32-.04.36-.51.36h-.16l.04.16h0Zm3.24-1.58c-.36-.2-.59-.51-.59-.91,0-.36.24-.95,1.07-.95.63,0,.91.39.91.75s-.12.59-.67.83c.51.28.75.55.75.95,0,.55-.43.99-1.11.99-.59,0-.99-.43-.99-.87-.04-.47.36-.71.63-.79m.91.95c0-.32-.16-.47-.75-.87-.28.16-.43.43-.43.67,0,.47.36.71.59.71.43,0,.59-.28.59-.51m-.32-1.26c.24-.2.39-.39.39-.71,0-.39-.28-.63-.55-.63-.36,0-.51.28-.51.55-.04.28.2.47.67.79m4.86-3.32c1.15,0,2.57.2,4.07.2v7.54c-2.73-.28-5.92-.47-6.64.83v-.39c.63-1.18,3.52-1.11,6.2-.83v-.24c-2.73-.28-5.37-.36-6.2.67v-6.79c.16-.75,1.15-.99,2.57-.99m-1.78,3.71h.16l.12-.32h1.42l-1.38,2.84.24.08,1.74-3.4-.04-.04h-2.13l-.12.83Zm3.4-.08c-.36-.2-.59-.51-.59-.91,0-.36.24-.95,1.03-.95.63,0,.91.39.91.75s-.12.59-.67.83c.51.28.75.55.75.95,0,.55-.43.99-1.11.99-.59,0-.99-.43-.99-.87.04-.47.39-.71.67-.79m.91.95c0-.32-.16-.47-.75-.87-.28.16-.43.43-.43.67,0,.47.36.71.59.71.43,0,.59-.28.59-.51m-.32-1.26c.24-.2.39-.39.39-.71,0-.39-.28-.63-.55-.63-.36,0-.51.28-.51.55s.2.47.67.79m11.85,28.01l-16.87-13.75-16.87,13.75c-8.69-10.11-8.65-21.76-8.61-26.54v-7.9h.04l25.44,20.74,25.44-20.74h.04v7.9c.04,4.78.12,16.43-8.61,26.54m-31.56-7.39c3.59,0,6.52-2.92,6.52-6.52s-2.88-6.56-6.48-6.56-6.52,2.92-6.52,6.52c-.04,3.59,2.88,6.56,6.48,6.56m4.19-9.24c0,.2-.08.51-.16.63-.08.04-.24.04-.39.04-.08,0-.12,0-.16.12-.16.28-.32.51-.47.87-.04.39-.04.75-.08,1.22,0,.16,0,.36-.08.55-.16.2-.32.32-.43.39-.04,0-.04.08.04.04.08,0,.36-.16.43-.2.2-.08.47-.32.79,0,.16.16.39.32.71.51.12.08.16.04.32.2.12.12.16.32.24.43.2.32.2.51.2.55-.12.08-.55.08-.71,0-.04-.12-.04-.28-.08-.36-.08-.16-.12-.24-.2-.28-.12-.08-.24-.2-.36-.28-.32-.2-.36-.24-.59-.12-.24.12-.55.43-.91.59-.28.16-1.07,0-1.26-.2.08.2.51.43.83.59-.04.12-.16.71-.39,1.07,0-.08-.08-.16-.16-.16-.24,0-.2.47-.39.71,0-.08-.08-.16-.16-.16-.2,0-.2.43-.39.67-.04-.08-.08-.16-.16-.16s-.16.08-.24.16c-.28.32-.39.47-.67.75-.87-.04-2.21-.67-2.69-1.22.83-.91,1.62-1.82,1.97-2.05.2-.51.71-1.66.91-2.17-.04-.04-.04-.12-.08-.16-.12.08-.28.08-.36.04.04-.16.08-.39,0-.55-.08.04-.24.08-.32.04.04-.16.08-.39,0-.55h0c-.12.04-.24.08-.32.04.04-.2.08-.39.04-.63v-.04c-.16.08-.71.2-.87.12-.08-.08.39-.55.83-.99-.39.16-.87.36-1.66.51-.43.08-1.34.24-2.01.12-.12,0-.08-.16.04-.16.36,0,.79-.04,1.15-.12.08-.04.24-.12-.04-.16-.28-.04-.79-.12-1.03-.24-.08-.04-.04-.12.04-.12.32.04.67.08.95.08.16,0,.24,0,.12-.12-.08-.04-.28-.2-.51-.32-.04-.04-.04-.08,0-.12.16-.04.87.39,1.34.51.12.04.2.04.28.04s.12-.08.12-.12c0-.12-.47-.32-.71-.47-.08-.04,0-.12.12-.12.24.08.83.36,1.07.39.2.04.28-.04.28-.08-.04-.16-.79-.51-.99-.63-.04-.04,0-.08.08-.08.39.04,1.18.59,1.54.51.04,0,.08-.04.08-.08-.04-.16-.67-.47-.83-.59-.08-.04,0-.12.12-.08.24.04.59.24.83.36.12.04.2.08.32.04.16-.04.28-.16.2-.47-.04-.32-.36-.43-.55-.51-.24-.08-.04-.16.12-.12.36.08.63.24.71.59v.2c0,.2.12.12.24-.04.2-.28.24-.59.2-.79-.04-.36-.55-.47-.55-.55,0-.04.04-.04.04-.04.2-.04.67.2.75.59.04.2,0,.32-.04.55,0,.04.04.08.08,0,.24-.24.43-.67.36-1.07-.08-.43-.51-.55-.51-.63,0,0,.04-.04.08-.04.16-.04.63.24.75.71.08.39-.12,1.26-1.38,1.94.55-.12.67-.12.75-.04.63-.16.99-.28,1.15-.24.16.28-.2.36-.2.55s.43-.12.36.16c-.12.24-.28.24-.47.32-.08.08-.47.32-.67.51.63.43,1.22,1.07,1.26,1.11.04.08.2.36.36.75v.04c.08-.28.24-.71.28-.91.04-.2.04-.24.08-.36.04-.08.24-.24.39-.47.12-.2.36-.51.43-.63.12-.2.28-.16.51-.24.04.08.32.08.4.08m-4.82.04s.08-.08.12-.12c.08-.04.24-.08.32-.12.04.08.04.2-.04.28-.08.08-.16.04-.24,0-.04-.04-.12-.04-.12-.04-.04.04-.04,0-.04,0m23.54,2.65c0-3.59,2.92-6.56,6.52-6.52,3.59,0,6.48,2.92,6.48,6.56s-2.92,6.56-6.52,6.52-6.48-3-6.48-6.56m9.48-4.46s.08.12.08.16c0,.16-.12.32-.28.32s-.28-.12-.32-.28c0-.16.12-.28.24-.28l-.32-.51-.55.24s.08.12.12.2c0,.16-.12.32-.28.32s-.32-.12-.32-.28c0-.12.08-.24.2-.28-.16-.2-.55-.47-.91-.59.28.47.43,1.11.39,1.62.36-.04,1.38.28,1.74.59.32-.47.79-.91,1.3-1.07-.28-.12-.75-.2-1.11-.16m-1.82,1.3h-.12s-.04-.04-.08-.04c0,0-.04-.08-.16-.08-.16,0-.28.12-.28.2,0,.04,0,.12.04.16s.08.08.12.08h.12c.08-.04.12-.12.12-.16s.08-.04.2-.08t.04-.08s0,0,0,0m-1.78.12c-.04.08-.04.12-.04.16l.04.04c-.04.08,0,.24,0,.39.04.12.12.16.28.16v.12h0c-.12.04-.2.04-.28.04-.28,0-.43-.16-.39-.43,0-.04.04-.08.04-.12s0-.04-.04-.04c-.08-.04-.39.2-.43.51s.12.47.39.47c.16,0,.32,0,.51-.08.32-.12.71-.16.95.04-.16-.04-.63,0-.75.04-.2.04-.28.43-.08.47.16,0,.79-.04.83,0-.08.28-.47.59-.83.67-.24-.08-.91-.08-1.22.04-.39-.43-.67-1.26-.71-1.54,0-.12,0-.28.04-.39.12-.24.36-.2.47-.39.08-.12.04-.24.04-.36,0-.04.12-.24-.04-.28-.04.08-.16.12-.24.08-.08-.04-.16-.04-.24,0-.12.04-.16.24-.28.36-.04.08-.12.04-.12-.08.04-.16.12-.32.08-.47-.04-.16-.16-.28-.32-.36-.08-.04-.16-.12-.24-.12-.08-.04-.16,0-.16.04.04.04.08.08.08.12,0,.16-.16.24-.16.36,0,.2.16.39.16.51,0,.08-.04.08-.12.04-.12-.04-.28-.16-.43-.16-.12,0-.2.12-.32.16-.04,0-.24,0-.2.12.12.04.2.08.24.2.04.08.04.16.12.2.12.08.39.08.51.08.08,0,.16.08.2.24,0,.12-.04.24-.08.36-.12.16-.16.36-.12.51.04-.08.08-.08.16-.08.12,0,.16.12.08.32-.08.16-.12.32-.04.51.04-.08.08-.12.16-.12.12,0,.16.12.08.32-.08.16-.08.36,0,.51.04-.08.08-.12.16-.12.12,0,.16.12.2.2.12.32.32.47.79.47-.16.32-1.58.12-2.13.04-.12,0-.2-.04-.24-.16-.08-.24.12-.39,0-.63-.04-.12-.16-.16-.24-.2-.04-.04-.16-.2-.28-.12.04.08.04.16-.08.24-.08.04-.12.12-.16.2-.04.16.12.32.16.43.04.12-.04.16-.12.08-.12-.12-.32-.36-.55-.36-.16,0-.2.08-.28.16-.04.04-.28.04-.24.16.08,0,.2.08.2.2.04.08.04.16.12.24.2.16.47.08.67.12.08,0,.08.08,0,.12-.16.08-.36.16-.43.28-.08.12-.04.28-.04.39,0,.04-.08.24.04.24.08-.08.16-.12.28-.12.08,0,.16.04.24,0,.16-.08.16-.2.24-.32.04-.08.12-.12.2-.12s.12,0,.16.08c.12.12.12.36.43.39-.04-.04-.04-.08-.04-.12,0-.08.04-.12.12-.12s.12.04.2.16c.08.16.2.2.36.24-.04-.04-.04-.08-.04-.12,0-.08.04-.12.12-.12.04,0,.12,0,.2.12.08.16.16.24.36.28-.04-.08,0-.24.12-.24s.47.12.71.2c0,.63.39,1.3,1.03,1.74-.04-.12.04-.2.12-.2.24,0,.36.59.95.87-.04-.12.04-.2.12-.2s.16.04.2.08c.51.28,1.03.59,1.26.83.51-.16,1.34-.67,1.9-1.22-.36-.12-1.26-.79-1.62-1.15-.59-.59-.75-1.22-.75-1.7,0-.16.04-.32.08-.43.16.12.43.08.55-.04-.28-.2-.24-.63-.16-.79.16.12.43.08.55-.04-.2-.12-.32-.47-.2-.75.12.12.39.12.55,0-.2-.2-.32-.47-.28-.79.12.12.28.16.43.08-.08-.2-.08-.47-.12-.67-.04-.28-.12-.59-.2-.75-.28-.24-1.18-.63-1.78-.63-.08,0-.16,0-.2.04-.16.04-.28.08-.28.12-.08.12-.28.16-.47.2.04-.12-.32,0-.47.08m.87,4.38h0c-.08.39-.28.99-.43,1.18l.24-.2.16.2.16-.2.24.2c-.12-.24-.32-.79-.36-1.18m4.34,1.86c.04-.08.12-.2.12-.2-.24-.36-.43-.75-.39-1.22.04-.51.32-.67.55-.63.2,0,.32.16.36.39.16-.16.24-.32.24-.47,0-.12-.04-.32-.28-.39.39-.36.36-1.11-.04-1.38.04.51-.36.91-.71,1.22-.47.47-.55.99-.47,1.54-.28-.55-.43-1.07-.39-1.58.04-.59.32-1.15.75-1.15.12,0,.28.08.32.2.2-.32.04-.71-.28-.75.32-.79-.2-1.58-.63-1.74.12.24.16.47.16.75-.04.75-.71,1.34-.79,2.49-.08,1.22.59,2.29,1.34,3.08.04,0,.08-.08.16-.16m-2.88-.2h0c-.08.39-.28.95-.43,1.18l.24-.2.16.2.16-.2.24.2c-.12-.2-.32-.79-.36-1.18m-1.11-4.94c.04-.08.04-.2.04-.24s0-.12-.04-.16-.16-.08-.28-.08-.24,0-.32.08c0,.04-.04.08-.04.12.2.04.43.08.63.28"/>
        </g>
      </g>
    </g>
  </g>
</svg>